<svg width="95" height="45" viewBox="0 0 95 45" fill="none" xmlns="http://www.w3.org/2000/svg">
<path d="M88.0376 18.9526L74.833 3.06348V34.7324L88.0376 18.9526Z" fill="#999999"/>
<path d="M81.6499 2.87793V34.9187L95 18.9527L81.6499 2.87793Z" fill="#FDBA13"/>
<path d="M56.1087 35.711C53.2402 35.711 50.3332 35.0803 47.924 33.9346C45.1293 32.6059 42.9858 30.5938 41.7245 28.1152L41.4862 27.6467L44.7554 26.0256L44.9922 26.49C45.9028 28.2747 47.5522 29.7791 49.7632 30.8406C51.7063 31.7735 54.019 32.3089 56.1087 32.3089C57.6246 32.3089 60.5169 32.1437 62.8507 31.0382C65.2009 29.925 66.3925 28.1345 66.3925 25.7171C66.4126 23.6375 65.4033 22.166 63.2177 21.0821C61.1544 20.0587 58.3666 19.5301 55.6705 19.0181C52.57 18.4178 49.3661 17.7977 46.9179 16.515C44.072 15.0242 42.6874 12.8457 42.6858 9.85625C42.6383 7.48433 43.3808 5.48054 44.8952 3.88201H37.6301V35.1818H33.9574V3.88201H27.0403V21.9187C27.0403 26.1501 25.575 29.7101 22.803 32.2143C20.3458 34.434 17.0444 35.6566 13.5067 35.6566C9.9733 35.6566 6.67769 34.4356 4.22734 32.2185C1.46167 29.7158 0 26.1543 0 21.9187V0.481007H3.62412V21.9187C3.62412 25.12 4.69084 27.7988 6.70881 29.6651C8.4974 31.3196 10.9114 32.2305 13.5057 32.2305C13.5062 32.2305 13.5067 32.2305 13.5073 32.2305C16.1058 32.23 18.5261 31.317 20.322 29.6593C22.3463 27.791 23.4162 25.1142 23.4162 21.9187V0.481007H26.513L51.3419 0.529115C52.8457 0.183472 54.4925 0.000976562 56.1081 0.000976562C58.2337 0.000976562 60.7225 0.124383 63.0706 1.04104C65.417 1.95718 67.3427 3.56408 68.9573 5.95377L69.2679 6.41341L66.2117 8.20542L65.9396 7.77141C63.6074 4.05457 59.8345 3.49767 56.105 3.45061C54.9871 3.45113 52.1355 3.58238 49.7157 4.78926C47.4879 5.90044 46.3579 7.57113 46.3579 9.7548C46.3579 11.5301 47.2052 12.7364 49.1062 13.6667C50.8969 14.5431 53.4242 15.055 56.3017 15.5873L56.6734 15.6579C59.8883 16.2702 63.2129 16.9035 65.7245 18.2997C68.6446 19.9228 70.0646 22.3648 70.0646 25.7642C70.0525 27.6623 69.5795 29.3315 68.6578 30.7276C67.8426 31.9628 66.6736 32.9913 65.1819 33.7856C62.0344 35.461 58.1461 35.711 56.1087 35.711Z" fill="#FDBA13"/>
<path d="M3.4495 40.9785V43.4352C3.4495 45.5022 0.396973 45.508 0.396973 43.4352V40.9785H0.698587V43.4352C0.698587 45.1351 3.14736 45.1294 3.14736 43.4352V40.9785H3.4495Z" fill="#808285"/>
<path d="M4.42329 40.9785L7.10565 44.2483V40.9785H7.40726V44.9317H7.28757L4.59941 41.6677V44.9317H4.29199V40.9785H4.42329Z" fill="#808285"/>
<path d="M8.30127 44.9322V40.979H8.60288V44.9322H8.30127Z" fill="#808285"/>
<path d="M12.7891 40.9785L11.1492 44.9432H10.8191L9.1792 40.9785H9.50929L10.9841 44.5929L12.459 40.9785H12.7891Z" fill="#808285"/>
<path d="M13.62 42.8029H15.9548V43.0795H13.62V44.6383H16.1373V44.9322H13.3184V40.979H16.0693V41.2671H13.62V42.8029Z" fill="#808285"/>
<path d="M19.9983 44.9322H19.5939L18.2155 43.4356H17.1277V44.9322H16.8208V40.979C17.4072 40.979 17.9882 40.979 18.5746 40.979C19.4404 40.979 19.8786 41.5945 19.8844 42.2099C19.8902 42.8536 19.4631 43.4184 18.5915 43.4184L19.9983 44.9322ZM17.1282 43.1475H18.5403C19.2353 43.1475 19.5427 42.7579 19.5485 42.2042C19.5543 41.7409 19.2353 41.2609 18.5746 41.2609H17.1282V43.1475Z" fill="#808285"/>
<path d="M23.2728 41.7412C22.9823 41.2779 22.5156 41.2104 22.0653 41.2047C21.5981 41.2047 20.8578 41.3741 20.8578 42.0068C20.8578 42.5093 21.4046 42.628 22.0764 42.7525C22.8452 42.8994 23.6425 43.0349 23.6425 43.8877C23.6367 44.7798 22.7313 44.9947 22.0648 44.9947C21.4442 44.9947 20.7381 44.7406 20.4302 44.1361L20.7033 44.0007C20.948 44.4807 21.5744 44.7181 22.0643 44.7181C22.5541 44.7181 23.334 44.5827 23.334 43.8825C23.3398 43.2895 22.6791 43.1598 22.0242 43.0354C21.2955 42.8942 20.5493 42.7473 20.5493 42.0188C20.5325 41.1832 21.4094 40.9233 22.0643 40.9233C22.6338 40.9233 23.1294 41.0138 23.5222 41.5953L23.2728 41.7412Z" fill="#808285"/>
<path d="M27.4643 44.9322L27.0255 43.9606H24.6453L24.2124 44.9322H23.8823L25.6704 40.979H26.0063L27.7943 44.9322H27.4643ZM26.9064 43.6783L25.836 41.2724L24.7655 43.6783H26.9064Z" fill="#808285"/>
<path d="M28.6712 40.9785V44.6436H30.9148V44.9317H28.3638V40.9785H28.6712Z" fill="#808285"/>
<path d="M34.195 41.2557H32.7544V40.9849H35.9435V41.2557H34.5029V44.9323H34.1955V41.2557H34.195Z" fill="#808285"/>
<path d="M39.7073 44.9322H39.3029L37.9245 43.4356H36.8367V44.9322H36.5293V40.979C37.1157 40.979 37.6967 40.979 38.2831 40.979C39.1489 40.979 39.5871 41.5945 39.5929 42.2099C39.5987 42.8536 39.1716 43.4184 38.3 43.4184L39.7073 44.9322ZM36.8372 43.1475H38.2493C38.9443 43.1475 39.2517 42.7579 39.2575 42.2042C39.2633 41.7409 38.9443 41.2609 38.2836 41.2609H36.8372V43.1475Z" fill="#808285"/>
<path d="M43.3925 44.9322L42.9538 43.9606H40.5735L40.1406 44.9322H39.8105L41.5986 40.979H41.9345L43.7226 44.9322H43.3925ZM42.8341 43.6783L41.7637 41.2724L40.6932 43.6783H42.8341Z" fill="#808285"/>
<path d="M44.3715 40.9785L47.0539 44.2483V40.9785H47.3555V44.9317H47.2358L44.5476 41.6677V44.9317H44.2402V40.9785H44.3715Z" fill="#808285"/>
<path d="M50.892 41.7412C50.6014 41.2779 50.1348 41.2104 49.6845 41.2047C49.2173 41.2047 48.477 41.3741 48.477 42.0068C48.477 42.5093 49.0238 42.628 49.6955 42.7525C50.4643 42.8994 51.2616 43.0349 51.2616 43.8877C51.2558 44.7798 50.3504 44.9947 49.6839 44.9947C49.0633 44.9947 48.3567 44.7406 48.0493 44.1361L48.3225 44.0007C48.5671 44.4807 49.1935 44.7181 49.6834 44.7181C50.1733 44.7181 50.9531 44.5827 50.9531 43.8825C50.9589 43.2895 50.2982 43.1598 49.6433 43.0354C48.9146 42.8942 48.1685 42.7473 48.1685 42.0188C48.1516 41.1832 49.0285 40.9233 49.6834 40.9233C50.2529 40.9233 50.7485 41.0138 51.1414 41.5953L50.892 41.7412Z" fill="#808285"/>
<path d="M52.2185 40.9785V44.6436H54.4622V44.9317H51.9111V40.9785H52.2185Z" fill="#808285"/>
<path d="M58.2157 44.9322L57.777 43.9606H55.3968L54.9639 44.9322H54.6338L56.4219 40.979H56.7577L58.5458 44.9322H58.2157ZM57.6573 43.6783L56.5869 41.2724L55.5165 43.6783H57.6573Z" fill="#808285"/>
<path d="M59.5363 41.2557H58.0957V40.9849H61.2848V41.2557H59.8442V44.9323H59.5368V41.2557H59.5363Z" fill="#808285"/>
<path d="M61.8716 44.9322V40.979H62.1732V44.9322H61.8716Z" fill="#808285"/>
<path d="M67.0197 42.961C67.0139 44.0001 66.3479 44.9999 65.0096 44.9999C63.6713 44.9999 62.9995 43.9948 62.9995 42.9501C62.9995 41.8886 63.666 40.917 65.0096 40.917C66.3531 40.917 67.0255 41.8938 67.0197 42.961ZM63.3011 42.9553C63.3069 43.8474 63.8764 44.7175 65.0096 44.7175C66.1486 44.7175 66.7238 43.8479 66.7238 42.9553C66.7238 42.0402 66.1544 41.1988 65.0096 41.1988C63.8648 41.1994 63.2953 42.0235 63.3011 42.9553Z" fill="#808285"/>
<path d="M67.8847 40.9785L70.5671 44.2483V40.9785H70.8687V44.9317H70.749L68.0608 41.6677V44.9317H67.7534V40.9785H67.8847Z" fill="#808285"/>
<path d="M75.9091 41.7412C75.6185 41.2779 75.1519 41.2104 74.7015 41.2047C74.2344 41.2047 73.494 41.3741 73.494 42.0068C73.494 42.5093 74.0408 42.628 74.7126 42.7525C75.4814 42.8994 76.2787 43.0349 76.2787 43.8877C76.2729 44.7798 75.3675 44.9947 74.701 44.9947C74.0804 44.9947 73.3738 44.7406 73.0664 44.1361L73.3395 44.0007C73.5842 44.4807 74.2106 44.7181 74.7005 44.7181C75.1904 44.7181 75.9702 44.5827 75.9702 43.8825C75.976 43.2895 75.3153 43.1598 74.6604 43.0354C73.9317 42.8942 73.1856 42.7473 73.1856 42.0188C73.1687 41.1832 74.0456 40.9233 74.7005 40.9233C75.27 40.9233 75.7656 41.0138 76.1585 41.5953L75.9091 41.7412Z" fill="#808285"/>
<path d="M78.0617 41.2557H76.6211V40.9849H79.8102V41.2557H78.3696V44.9323H78.0622V41.2557H78.0617Z" fill="#808285"/>
<path d="M83.5628 40.9785V43.4352C83.5628 45.5022 80.5103 45.508 80.5103 43.4352V40.9785H80.8119V43.4352C80.8119 45.1351 83.2606 45.1294 83.2606 43.4352V40.9785H83.5628Z" fill="#808285"/>
<path d="M87.7426 42.9101C87.7653 43.9151 87.1162 44.9322 85.721 44.9322C85.2712 44.9322 84.8214 44.9322 84.3711 44.9322V40.979C84.8209 40.979 85.2707 40.979 85.721 40.979C87.0703 40.9785 87.72 41.9385 87.7426 42.9101ZM84.6785 41.2666V44.6383H85.7205C86.9048 44.6383 87.4516 43.7572 87.4347 42.9101C87.4178 42.0855 86.871 41.2666 85.7205 41.2666H84.6785Z" fill="#808285"/>
<path d="M88.5059 44.9322V40.979H88.8075V44.9322H88.5059Z" fill="#808285"/>
<path d="M93.6539 42.961C93.6481 44.0001 92.9821 44.9999 91.6438 44.9999C90.3056 44.9999 89.6338 43.9948 89.6338 42.9501C89.6338 41.8886 90.3003 40.917 91.6438 40.917C92.9874 40.917 93.6597 41.8938 93.6539 42.961ZM89.9349 42.9553C89.9407 43.8474 90.5102 44.7175 91.6433 44.7175C92.7823 44.7175 93.3576 43.8479 93.3576 42.9553C93.3576 42.0402 92.7881 41.1988 91.6433 41.1988C90.4991 41.1994 89.9296 42.0235 89.9349 42.9553Z" fill="#808285"/>
</svg>
